<?xml version="1.0" encoding="utf-8"?>
<!-- Generator: Adobe Illustrator 24.0.0, SVG Export Plug-In . SVG Version: 6.00 Build 0)  -->
<svg version="1.1" id="Capa_1" xmlns:mydata="http://www.w3.org/2000/svg"
	 xmlns="http://www.w3.org/2000/svg" xmlns:xlink="http://www.w3.org/1999/xlink" x="0px" y="0px" viewBox="0 0 704.9 132.5"
	 style="enable-background:new 0 0 704.9 132.5;" xml:space="preserve">
<style type="text/css">
	.st0{fill:#FFE200;}
</style>
<g>
	<g>
		<path class="st0" d="M263.7,37.3L263.7,37.3c0-5.3-4.3-9.6-9.6-9.6h-3.7c-11.5,0-23.3,8.5-27.4,19.8L211.6,78
			c-1.6,4.1-6.1,7.2-8.2,7.2h-2.6c-5.3,0-9.6,4.3-9.6,9.6v0c0,5.3,4.3,9.6,9.6,9.6h2.6c10.8,0,22.1-8.5,26.2-19.8l2.4-6.3h12.5
			c5.3,0,9.6-4.3,9.6-9.6v0c0-5.3-4.3-9.6-9.6-9.6h-5.4l1.8-5.1c1.5-3.9,6.4-7.2,9.5-7.2l3.7,0C259.4,46.9,263.7,42.6,263.7,37.3z"
			/>
		<path class="st0" d="M290.3,53.7c1.6-4.2,3.4-7,8.1-7h5c5.3,0,9.5-4.3,9.5-9.5v0c0-5.3-4.3-9.5-9.5-9.5h-5
			c-11.4,0-22.3,9.1-25.9,19.6L257,91.8c-2.1,6.2,2.4,12.6,9,12.6h0c4,0,7.6-2.6,9-6.4L290.3,53.7z"/>
		<path class="st0" d="M351.7,27.9c-21.7,0-38.6,18.1-38.6,39.5c0,21.3,16.9,39.5,38.6,39.5c21.7,0,38.5-18.2,38.5-39.5
			C390.2,46,373.4,27.9,351.7,27.9z M351.7,88.2c-11.5,0-20-9.8-20-20.8c0-11.1,8.6-20.9,20-20.9s19.9,9.8,19.9,20.9
			C371.6,78.4,363.1,88.2,351.7,88.2L351.7,88.2z"/>
		<path class="st0" d="M433.4,28.3c-20.7,0-36.2,17.9-36.2,38.2v28.4c0,5.3,4.3,9.5,9.5,9.5h0c5.3,0,9.5-4.3,9.5-9.5V66.5
			c0-9.7,7-19,17.2-19c10.2,0,17.2,9.3,17.2,19v28.4c0,5.3,4.3,9.5,9.5,9.5l0,0c5.3,0,9.5-4.3,9.5-9.5V66.5
			C469.7,46.2,454.1,28.3,433.4,28.3L433.4,28.3z"/>
		<path class="st0" d="M491.2,39.1l-1.8-5c-1.3-3.8-4.9-6.4-9-6.4l0,0c-6.5,0-11.1,6.5-9,12.6L487,84.8
			c3.6,10.5,14.5,19.6,25.9,19.6h2.6c5.3,0,9.5-4.3,9.5-9.5v0c0-5.3-4.3-9.5-9.5-9.5h-2.6c-4.7,0-6.5-2.8-8.1-7l-6.9-20h11.6
			c5.3,0,9.6-4.3,9.6-9.6v0c0-5.3-4.3-9.6-9.6-9.6H491.2z"/>
		<path class="st0" d="M552.3,38.7c0-5.8-4.6-10.4-10.4-10.4c-5.8,0-10.4,4.6-10.4,10.4s4.6,10.4,10.4,10.4
			C547.7,49.1,552.3,44.5,552.3,38.7z M551.5,94.7V62.9c0-5.3-4.3-9.6-9.6-9.6l0,0c-5.3,0-9.6,4.3-9.6,9.6v31.8
			c0,5.3,4.3,9.6,9.6,9.6h0C547.2,104.3,551.5,100,551.5,94.7z"/>
		<path class="st0" d="M631.3,37.3L631.3,37.3c0-5.3-4.3-9.6-9.6-9.6H618c-11.5,0-23.3,8.5-27.4,19.8L579.2,78
			c-1.6,4.1-6.1,7.2-8.2,7.2h-2.6c-5.3,0-9.6,4.3-9.6,9.6v0c0,5.3,4.3,9.6,9.6,9.6h2.6c10.8,0,22.1-8.5,26.2-19.8l2.4-6.3h12.1
			c5.3,0,9.6-4.3,9.6-9.6v0c0-5.3-4.3-9.6-9.6-9.6h-5l1.8-5.1c1.5-3.9,6.4-7.2,9.5-7.2l3.7,0C627,46.9,631.3,42.6,631.3,37.3z"/>
		<path class="st0" d="M684.5,32.8c-3.5,6.7-9.8,18.5-13.7,25.4l-10.7-24.7c-1.5-3.5-5-5.8-8.8-5.8l0,0c-6.9,0-11.6,7.1-8.8,13.4
			l16.6,38.3c-2.3,2.9-7,5.7-10.8,5.7H647c-5.3,0-9.6,4.3-9.6,9.6v0c0,5.3,4.3,9.6,9.6,9.6h1.3c10.9,0,23-7.2,28.4-16.7l2.9-5.2
			l0.6-1c4.4-7.4,8.2-15.1,12.4-22.7l9-16.9c3.4-6.4-1.2-14.2-8.5-14.2h0C689.5,27.7,686.2,29.7,684.5,32.8z"/>
	</g>
	<g>
		<path class="st0" d="M125.6,10c-0.9-0.8-2.1-1.4-3.3-1.8V7.7h-3.1c-2.4,0-4.6,0.8-6.3,2.2l0,0c-1.8,1.6-2.9,3.7-2.9,6v100.5
			c0,4.6,4.1,8.3,9.2,8.3s9.2-3.7,9.2-8.3V16C128.5,13.7,127.5,11.5,125.6,10z"/>
		<path class="st0" d="M50.8,12.9v-0.5h-3.1c-5.1,0-9.2,3.7-9.2,8.3v91.2c0,4.6,4.1,8.3,9.2,8.3s9.2-3.7,9.2-8.3V20.7
			C57,17.1,54.4,14,50.8,12.9z"/>
		<path class="st0" d="M153.7,40.5c-5.2,0-9.2,3.4-9.2,7.7v38.3c0,4.3,4.1,7.7,9.2,7.7c5.2,0,9.2-3.4,9.2-7.7V48.2
			C162.9,43.9,158.9,40.5,153.7,40.5z"/>
		<path class="st0" d="M88.3,31.9c-0.9-0.7-2-1.2-3.1-1.5v-0.4h-3.1c-5.2,0-9.2,3.4-9.2,7.7v57.3c0,4.3,4.1,7.7,9.2,7.7
			c5.2,0,9.2-3.4,9.2-7.7V37.6C91.4,35.4,90.3,33.3,88.3,31.9z"/>
		<path class="st0" d="M13.3,45.4c-5.2,0-9.2,3.4-9.2,7.7v28.4c0,4.3,4.1,7.7,9.2,7.7c5.2,0,9.2-3.4,9.2-7.7V53.1
			C22.6,48.8,18.5,45.4,13.3,45.4z"/>
	</g>
</g>
</svg>
